<svg width="1846" height="2142" viewBox="0 0 1846 2142" fill="none" xmlns="http://www.w3.org/2000/svg">
<g filter="url(#filter0_f_2836_3215)">
<path d="M1390.01 243.91C1519.75 289.118 1588.47 430.384 1543.5 559.436C1498.54 688.488 1426.32 877.25 1383.69 577.84C1186.27 734.583 1055.02 427.743 1073.68 395.724C1092.34 363.705 1260.27 198.702 1390.01 243.91Z" fill="url(#paint0_linear_2836_3215)" fill-opacity="0.84"/>
</g>
<g filter="url(#filter1_f_2836_3215)">
<path d="M1442.01 1134.91C1571.75 1180.12 1640.47 1321.38 1595.5 1450.44C1550.54 1579.49 1478.32 1768.25 1435.69 1468.84C1238.27 1625.58 1107.02 1318.74 1125.68 1286.72C1144.34 1254.71 1312.27 1089.7 1442.01 1134.91Z" fill="url(#paint1_linear_2836_3215)" fill-opacity="0.84"/>
</g>
<g filter="url(#filter2_f_2836_3215)">
<path d="M554.013 683.91C683.753 729.118 752.473 870.384 707.505 999.436C662.536 1128.49 590.322 1317.25 547.689 1017.84C350.274 1174.58 219.018 867.743 237.677 835.724C256.335 803.705 424.274 638.702 554.013 683.91Z" fill="url(#paint2_linear_2836_3215)" fill-opacity="0.84"/>
</g>
<g filter="url(#filter3_f_2836_3215)">
<path d="M560.013 1411.91C689.753 1457.12 758.473 1598.38 713.505 1727.44C668.536 1856.49 596.322 2045.25 553.689 1745.84C356.274 1902.58 225.018 1595.74 243.677 1563.72C262.335 1531.71 430.274 1366.7 560.013 1411.91Z" fill="url(#paint3_linear_2836_3215)" fill-opacity="0.84"/>
</g>
<defs>
<filter id="filter0_f_2836_3215" x="836.114" y="0.322556" width="956.969" height="973.385" filterUnits="userSpaceOnUse" color-interpolation-filters="sRGB">
<feFlood flood-opacity="0" result="BackgroundImageFix"/>
<feBlend mode="normal" in="SourceGraphic" in2="BackgroundImageFix" result="shape"/>
<feGaussianBlur stdDeviation="117.9" result="effect1_foregroundBlur_2836_3215"/>
</filter>
<filter id="filter1_f_2836_3215" x="888.114" y="891.323" width="956.969" height="973.385" filterUnits="userSpaceOnUse" color-interpolation-filters="sRGB">
<feFlood flood-opacity="0" result="BackgroundImageFix"/>
<feBlend mode="normal" in="SourceGraphic" in2="BackgroundImageFix" result="shape"/>
<feGaussianBlur stdDeviation="117.9" result="effect1_foregroundBlur_2836_3215"/>
</filter>
<filter id="filter2_f_2836_3215" x="0.114059" y="440.323" width="956.969" height="973.385" filterUnits="userSpaceOnUse" color-interpolation-filters="sRGB">
<feFlood flood-opacity="0" result="BackgroundImageFix"/>
<feBlend mode="normal" in="SourceGraphic" in2="BackgroundImageFix" result="shape"/>
<feGaussianBlur stdDeviation="117.9" result="effect1_foregroundBlur_2836_3215"/>
</filter>
<filter id="filter3_f_2836_3215" x="6.11406" y="1168.32" width="956.969" height="973.385" filterUnits="userSpaceOnUse" color-interpolation-filters="sRGB">
<feFlood flood-opacity="0" result="BackgroundImageFix"/>
<feBlend mode="normal" in="SourceGraphic" in2="BackgroundImageFix" result="shape"/>
<feGaussianBlur stdDeviation="117.9" result="effect1_foregroundBlur_2836_3215"/>
</filter>
<linearGradient id="paint0_linear_2836_3215" x1="1215.1" y1="513.649" x2="1430.69" y2="394.174" gradientUnits="userSpaceOnUse">
<stop stop-color="#FFCB05" stop-opacity="0.28"/>
<stop offset="1" stop-color="#FFEBFF"/>
</linearGradient>
<linearGradient id="paint1_linear_2836_3215" x1="1267.1" y1="1404.65" x2="1482.69" y2="1285.17" gradientUnits="userSpaceOnUse">
<stop stop-color="#FFCB05" stop-opacity="0.28"/>
<stop offset="1" stop-color="#FFEBFF"/>
</linearGradient>
<linearGradient id="paint2_linear_2836_3215" x1="379.097" y1="953.649" x2="594.688" y2="834.174" gradientUnits="userSpaceOnUse">
<stop stop-color="#FFCB05" stop-opacity="0.28"/>
<stop offset="1" stop-color="#FFEBFF"/>
</linearGradient>
<linearGradient id="paint3_linear_2836_3215" x1="385.097" y1="1681.65" x2="600.688" y2="1562.17" gradientUnits="userSpaceOnUse">
<stop stop-color="#FFCB05" stop-opacity="0.28"/>
<stop offset="1" stop-color="#FFEBFF"/>
</linearGradient>
</defs>
</svg>
