<?xml version="1.0" encoding="UTF-8" standalone="no"?>
<svg
   xmlns:dc="http://purl.org/dc/elements/1.1/"
   xmlns:cc="http://creativecommons.org/ns#"
   xmlns:rdf="http://www.w3.org/1999/02/22-rdf-syntax-ns#"
   xmlns:svg="http://www.w3.org/2000/svg"
   xmlns="http://www.w3.org/2000/svg"
   viewBox="0 0 1122.52 793.70135"
   height="793.70135"
   width="1122.52"
   xml:space="preserve"
   id="svg2"
   version="1.1"><metadata
     id="metadata8"><rdf:RDF><cc:Work
         rdf:about=""><dc:format>image/svg+xml</dc:format><dc:type
           rdf:resource="http://purl.org/dc/dcmitype/StillImage" /></cc:Work></rdf:RDF></metadata><defs
     id="defs6"><clipPath
       id="clipPath18"
       clipPathUnits="userSpaceOnUse"><path
         id="path16"
         d="M 0,595.276 H 841.89 V 0 H 0 Z" /></clipPath></defs><g
     transform="matrix(1.3333333,0,0,-1.3333333,0,793.70133)"
     id="g10"><g
       id="g12"><g
         clip-path="url(#clipPath18)"
         id="g14"><g
           transform="translate(165.772,317.3683)"
           id="g20"><path
             id="path22"
             style="fill:#d22728;fill-opacity:1;fill-rule:evenodd;stroke:none"
             d="m 0,0 c 1.583,4.57 4.752,7.395 9.084,9.59 6.323,3.203 12.321,7.085 18.445,10.702 0.754,0.441 1.854,0.918 2.054,1.579 0.551,1.916 1.433,4.246 0.758,5.802 -0.398,0.945 -3.878,1.611 -5.209,0.918 C 18.423,25.154 11.961,21.232 5.414,17.476 4.17,16.761 2.933,16.073 1.062,15.006 c 0,10.059 -0.257,19.487 0.125,28.893 0.153,3.68 5.016,5.663 8.856,3.576 8.317,-4.534 16.583,-9.208 24.461,-14.453 2.007,-1.341 3.417,-4.98 3.488,-7.602 0.356,-12.609 0.27,-25.236 0,-37.844 -0.042,-2.088 -1.158,-5.074 -2.75,-6.05 -11.019,-6.82 -22.33,-13.225 -34.419,-20.266 0,7.292 0.115,13.743 -0.025,20.203 C 0.688,-13.553 0.276,-8.56 0,-3.567 Z" /></g><g
           transform="translate(676.1179,270.9772)"
           id="g24"><path
             id="path26"
             style="fill:#27282a;fill-opacity:1;fill-rule:evenodd;stroke:none"
             d="m 0,0 c -6.905,-0.306 -13.85,-1.165 -20.719,-0.765 -8.056,0.486 -12.982,6.082 -13.095,14.138 -0.198,14.265 -0.026,28.538 -0.103,42.806 -0.004,2.438 0.774,3.446 3.32,3.442 12.001,-0.073 9.797,0.584 9.869,-9.15 0.085,-11.3 0.009,-22.586 0.022,-33.881 0.01,-5.87 0.9,-6.649 6.649,-6.82 C -9.37,9.622 -4.683,9.222 0,8.916 Z" /></g><g
           transform="translate(200.0716,244.3382)"
           id="g28"><path
             id="path30"
             style="fill:#27282a;fill-opacity:1;fill-rule:evenodd;stroke:none"
             d="m 0,0 c -8.707,-4.975 -16.639,-9.856 -24.909,-14.071 -4.04,-2.078 -8.304,0.819 -8.448,5.538 -0.306,9.639 -0.324,19.311 0.02,28.946 0.081,1.966 1.855,4.598 3.608,5.664 11.637,7.13 23.442,13.976 35.289,20.719 1.302,0.737 3.67,0.89 4.939,0.207 C 22.235,40.651 33.818,34.061 45.986,27.26 44.167,26.063 42.898,25.154 41.557,24.367 32.608,19.109 23.546,14.003 14.703,8.574 10.26,5.848 6.225,5.794 1.813,8.435 c -6.361,3.805 -12.857,7.399 -19.303,11.052 -1.284,0.733 -2.672,1.857 -3.983,1.835 -1.664,-0.023 -4.106,-0.589 -4.752,-1.736 -0.641,-1.143 0.025,-3.721 1.01,-4.926 1.23,-1.503 3.373,-2.312 5.173,-3.329 C -13.641,7.679 -7.213,4.076 0,0" /></g><g
           transform="translate(212.3519,343.67)"
           id="g32"><path
             id="path34"
             style="fill:#088345;fill-opacity:1;fill-rule:evenodd;stroke:none"
             d="m 0,0 c 10.018,-5.839 18.929,-11.655 28.411,-16.347 7.002,-3.473 9.208,-8.349 8.74,-15.713 -0.465,-7.242 -0.101,-14.542 -0.067,-21.821 0.009,-2.888 0.556,-5.578 4.184,-5.596 3.814,-0.018 4.502,2.749 4.484,5.834 -0.025,7.112 -0.119,14.242 -0.119,21.367 0,1.548 0.259,3.1 0.463,5.291 7.883,-4.607 15.27,-8.637 22.339,-13.171 5.063,-3.262 5.283,-7.837 0.297,-11.125 -7.883,-5.213 -16.093,-10.013 -24.493,-14.34 -1.962,-0.999 -5.662,-0.059 -7.897,1.178 -10.893,5.992 -21.639,12.267 -32.226,18.763 -1.863,1.129 -3.878,3.778 -3.943,5.775 C -0.173,-26.999 0,-14.08 0,0" /></g><g
           transform="translate(425.7964,305.4928)"
           id="g36"><path
             id="path38"
             style="fill:#27282a;fill-opacity:1;fill-rule:evenodd;stroke:none"
             d="m 0,0 c 4.125,0 7.804,-0.094 11.471,0.027 3.94,0.139 6.329,2.177 6.662,6.234 0.341,3.968 -0.747,7.225 -5.214,7.773 C 8.745,14.552 4.512,14.552 0,14.804 Z m -0.02,-24.7 c 4.352,0 8.504,-0.365 12.561,0.103 3.792,0.441 5.893,2.915 5.929,7.076 0.014,4.053 -1.183,7.409 -5.412,7.957 -4.313,0.554 -8.735,0.113 -13.078,0.113 z m 25.102,20.746 c 2.061,-3.653 4.881,-6.725 5.529,-10.184 2.186,-11.817 -3.945,-19.689 -16.419,-20.94 -7.035,-0.715 -14.221,-0.238 -21.333,-0.004 -3.925,0.116 -5.888,1.997 -5.821,6.508 0.268,15.722 0.2,31.466 0.038,47.188 -0.051,3.918 1.307,6.032 5.223,5.987 C 0.857,24.52 9.491,24.907 17.952,23.918 23.836,23.229 28.789,19.716 30.201,13.18 31.564,6.932 31.182,1.061 25.636,-3.338 25.213,-3.675 24.898,-4.17 25.082,-3.954" /></g><g
           transform="translate(369.3223,302.8161)"
           id="g40"><path
             id="path42"
             style="fill:#27282a;fill-opacity:1;fill-rule:evenodd;stroke:none"
             d="m 0,0 h 18.58 c 0,4.247 0.124,8.115 -0.029,11.948 -0.142,3.306 -2.058,5.506 -5.398,5.164 C 8.779,16.68 3.412,19.617 0.378,13.877 0.169,13.486 0.014,13.018 0.014,12.595 -0.013,8.475 0,4.364 0,0 M 18.639,-11.371 H -0.144 c 0,-5.857 -0.144,-11.476 0.05,-17.072 0.108,-3.045 -0.801,-4.224 -3.988,-4.161 -11.086,0.203 -9.109,-0.791 -9.208,8.826 -0.122,10.836 -0.025,21.682 -0.02,32.536 0,13.126 4.201,18.299 17.111,19.618 5.385,0.553 11.016,0.112 16.358,-0.819 7.362,-1.287 11.379,-7.067 11.57,-16.334 0.272,-13.36 0.022,-26.747 0.094,-40.125 0.016,-2.672 -1.048,-3.724 -3.704,-3.656 -11.122,0.296 -9.323,-1.62 -9.471,8.87 -0.054,3.976 -0.009,7.958 -0.009,12.317" /></g><g
           transform="translate(505.5963,280.725)"
           id="g44"><path
             id="path46"
             style="fill:#27282a;fill-opacity:1;fill-rule:evenodd;stroke:none"
             d="m 0,0 c 2.735,0 5.236,-0.076 7.728,0.023 6.082,0.224 9.667,2.986 10.103,9.064 0.518,7.071 0.446,14.228 0,21.312 -0.319,5.196 -3.594,8.287 -8.448,8.822 C 6.347,39.558 3.248,39.284 0,39.284 Z m -13.243,19.801 c 0,8.453 -0.13,16.919 0.126,25.367 0.027,1.444 1.606,4.03 2.546,4.066 8.52,0.301 17.183,1.102 25.532,-0.122 C 23.805,47.817 29.428,41.384 30.417,32.397 31.29,24.498 31.713,16.361 30.814,8.493 29.37,-3.922 20.845,-10.728 7.355,-11.223 c -5.61,-0.207 -11.246,0.548 -16.855,0.909 -2.974,0.179 -3.86,1.835 -3.797,4.745 0.18,8.453 0.054,16.905 0.054,25.37" /></g><g
           transform="translate(560.1022,306.4777)"
           id="g48"><path
             id="path50"
             style="fill:#27282a;fill-opacity:1;fill-rule:evenodd;stroke:none"
             d="m 0,0 c 6.693,0 12.771,-0.171 18.83,0.059 3.909,0.139 4.359,-1.943 4.255,-5.02 -0.085,-2.933 0.23,-5.727 -4.197,-5.533 -6.059,0.22 -12.145,0.04 -18.758,0.04 0,-3.837 -0.179,-7.355 0.059,-10.827 0.225,-3.27 2.465,-4.458 5.573,-4.44 4.755,0.054 9.528,0.212 14.255,-0.117 1.179,-0.094 3.212,-1.903 3.172,-2.843 -0.117,-2.568 2.141,-6.936 -2.42,-7.27 -7.63,-0.553 -15.403,-0.706 -22.978,0.14 -5.533,0.612 -9.743,4.885 -10.008,10.522 -0.567,12.555 -0.707,25.163 -0.077,37.709 0.351,6.99 5.416,11.255 12.416,11.727 6.482,0.427 13.004,0.09 19.513,-0.036 5.115,-0.103 3.473,-4.089 3.756,-6.918 0.32,-3.1 -1.408,-3.68 -4.093,-3.59 -4.449,0.162 -8.92,-0.068 -13.365,0.063 C 1.714,13.805 -0.023,11.745 0,7.737 0.013,5.389 0,3.036 0,0" /></g><g
           transform="translate(607.9327,306.4823)"
           id="g52"><path
             id="path54"
             style="fill:#27282a;fill-opacity:1;fill-rule:evenodd;stroke:none"
             d="m 0,0 c 6.005,0 12.055,-0.216 18.097,0.076 4.273,0.217 4.435,-2.141 4.435,-5.303 0,-3.135 -0.045,-5.542 -4.39,-5.303 -6.037,0.319 -12.096,0.071 -18.605,0.071 0,-3.859 -0.194,-7.255 0.036,-10.616 0.234,-3.139 2.145,-4.7 5.407,-4.655 4.601,0.067 9.221,-0.077 13.809,0.058 2.69,0.072 4.526,-0.575 4.062,-3.657 -0.395,-2.568 1.665,-6.586 -3.256,-6.828 -6.208,-0.329 -12.479,-0.9 -18.628,-0.297 -9.473,0.913 -13.526,4.503 -14.138,14.026 -0.747,11.506 -0.216,23.125 0.229,34.672 0.261,6.716 4.858,10.909 11.026,11.628 7.291,0.837 14.795,0.514 22.136,-0.125 4.516,-0.396 2.146,-4.706 2.555,-7.301 0.4,-2.465 -1.309,-2.861 -3.365,-2.821 -4.615,0.077 -9.226,0.059 -13.819,0 C 0.81,13.571 -0.369,12.366 -0.517,7.499 -0.58,5.569 -0.531,3.63 -0.495,1.701 -0.472,1.282 -0.257,0.877 0,0" /></g><g
           transform="translate(320.3158,319.8962)"
           id="g56"><path
             id="path58"
             style="fill:#27282a;fill-opacity:1;fill-rule:evenodd;stroke:none"
             d="m 0,0 c -4.141,0 -7.544,0.108 -10.931,-0.041 -2.562,-0.112 -3.7,0.594 -3.758,3.437 -0.158,7.27 -0.297,7.27 7.127,7.27 10.252,-0.014 20.515,-0.194 30.75,0.076 4.778,0.139 5.07,-2.231 5.232,-6.027 C 28.598,0.477 26.785,-0.346 23.146,-0.063 20.064,0.185 16.976,0 13.436,0 13.335,-2.082 13.2,-3.648 13.196,-5.218 c -0.025,-13.365 -0.12,-26.738 0.042,-40.111 0.039,-3.297 -0.904,-4.431 -4.269,-4.355 -10.717,0.212 -8.868,-0.728 -8.94,8.642 C -0.076,-27.552 0,-14.066 0,0" /></g><g
           transform="translate(473.2714,299.3301)"
           id="g60"><path
             id="path62"
             style="fill:#27282a;fill-opacity:1;fill-rule:evenodd;stroke:none"
             d="M 0,0 H 4.004 C 9.266,-0.014 9.419,-0.306 9.28,-5.551 9.213,-8.061 8.25,-8.992 5.826,-8.929 c -4,0.09 -8.008,0.076 -12.02,0 -3.041,-0.045 -3.167,1.799 -3.14,4.129 0.063,2.344 -0.153,4.652 3.095,4.764 2.087,0.085 4.165,0.022 6.239,0.022 z" /></g></g></g></g></svg>